<svg width="30" height="30" viewBox="0 0 30 30" fill="none" class="svg-icon"><path fill-rule="evenodd" clip-rule="evenodd" d="M16.3295 22.583C15.9081 22.6404 15.4886 22.7032 15.4886 22.7032C15.3768 22.7147 15.2827 22.8097 15.2845 22.9305C15.2845 23.0588 15.3867 23.1578 15.5143 23.1578C15.5192 23.1578 15.5226 23.1557 15.5255 23.154C15.5275 23.1527 15.5293 23.1516 15.5311 23.1516V23.1578C15.5311 23.1578 15.9631 23.0973 16.3975 23.0361C16.4816 23.025 16.5659 23.0128 16.6472 23.001C16.7749 22.9825 16.8951 22.9652 16.9953 22.9547C17.1537 22.9081 17.2543 22.8842 17.2543 22.8842C18.0003 24.2711 19.2055 24.6158 20.1673 24.4556C20.6523 24.4109 21.066 24.2258 21.3517 24.0603C21.6393 23.8947 21.8045 23.7662 21.8045 23.7662C21.562 23.6719 21.3166 23.5595 21.0637 23.4437C20.7463 23.2984 20.417 23.1476 20.0666 23.0202C19.7502 22.8911 19.407 22.7889 19.0524 22.7408C18.7105 22.7022 18.3471 22.7022 17.9298 22.7277C18.3378 22.6392 20.3005 21.9017 20.2666 21.8299C20.802 22.4026 21.3942 22.7022 21.9703 22.801C22.5296 22.8699 23.0755 22.7408 23.5404 22.5401C23.9476 22.3834 24.245 22.0954 24.4793 21.8687C24.5178 21.8314 24.5547 21.7957 24.5901 21.7625C24.8242 21.5178 24.9519 21.3408 24.9519 21.3408C24.6747 21.3322 24.3868 21.2987 24.0916 21.2644C23.7472 21.2244 23.3929 21.1832 23.0342 21.179C22.9336 21.1814 22.8281 21.1794 22.7199 21.1773C22.4762 21.1727 22.2185 21.1677 21.9703 21.2122C21.6939 21.236 21.4361 21.3261 21.1512 21.4258C21.0487 21.4616 20.9428 21.4986 20.8312 21.5343L20.8338 21.5331C20.8722 21.5153 21.0042 21.4541 21.1759 21.3324C21.269 21.2651 21.3776 21.1887 21.4937 21.107C21.6281 21.0123 21.7727 20.9106 21.915 20.8076C22.1951 20.6312 22.4411 20.403 22.6106 20.2256C22.788 20.052 22.9091 19.9353 22.9091 19.9353C24.3357 20.7511 25.5037 20.2141 26.2736 19.5005C26.6089 19.108 26.8481 18.6807 26.9931 18.3589C27.139 18.0406 27.1962 17.8248 27.1962 17.8248C26.8882 17.9334 26.568 18.0186 26.2406 18.1058C25.3009 18.3562 24.3016 18.6223 23.3584 19.5005C23.3584 19.5005 23.7457 18.9797 24.1286 18.4574C24.2702 18.2799 24.3655 18.0781 24.4499 17.8994C24.4888 17.817 24.5253 17.7396 24.5631 17.6717C24.6711 17.4574 24.7438 17.3102 24.7438 17.3102C26.3798 17.585 27.3204 16.5696 27.7061 15.6774C28.1049 14.7628 27.9828 13.9218 27.9828 13.9218C27.7743 14.078 27.5494 14.2253 27.3174 14.3773C26.5004 14.9127 25.5957 15.5055 25.0075 16.7432C25.0075 16.7432 25.2192 16.1255 25.3469 15.4885C25.4733 14.8547 25.5195 14.2072 25.5195 14.2072C27.0863 13.9044 27.7372 12.8219 27.8648 11.8555C28.0039 10.8884 27.6598 10.085 27.6598 10.085C27.4901 10.3132 27.2966 10.5348 27.0965 10.7639C26.466 11.4858 25.7712 12.2814 25.5571 13.5877C25.5571 13.5877 25.5823 12.9436 25.5338 12.2974C25.491 11.6496 25.3727 11.0173 25.3727 11.0173C26.7912 10.3186 27.144 9.07916 26.9428 8.05249C26.8793 7.56987 26.6594 7.15062 26.4993 6.84559C26.4895 6.82676 26.4798 6.80837 26.4704 6.79043C26.2652 6.48795 26.1068 6.31374 26.1068 6.31374C26.0337 6.66929 25.8979 7.03304 25.7571 7.41034C25.6652 7.65653 25.5712 7.90849 25.491 8.1677C25.2798 8.83165 25.1491 9.52728 25.2391 10.4074C25.2391 10.4074 25.2127 10.3005 25.1764 10.1384C25.1517 10.062 25.1242 9.97281 25.0948 9.87739C25.0633 9.77505 25.0296 9.66557 24.9947 9.55709C24.8571 9.14344 24.678 8.73911 24.678 8.73911C24.7739 8.45744 24.9307 7.88107 24.6155 7.24445C24.3295 6.64198 23.5209 5.89263 22.2135 6.01282L22.2026 6.00195V6.01282H22.1954C22.1986 6.01282 22.2026 6.01685 22.2026 6.02151C22.5569 7.18917 22.7367 7.77331 23.1206 8.16801C23.478 8.55775 23.9184 8.77513 24.2413 8.8832C24.2413 8.8832 24.396 9.26052 24.541 9.65491C24.6019 9.85118 24.664 10.0474 24.7121 10.1946C24.7599 10.3487 24.7761 10.454 24.7761 10.454C24.4469 9.68628 23.8612 9.32201 23.2895 9.19468C22.7047 9.06394 22.1315 9.14344 21.6657 9.2304C21.6657 9.2304 21.9756 9.82137 22.1678 10.0397C22.6038 10.444 23.3423 10.9418 24.9211 11.1008C24.9211 11.1008 25.0329 11.6912 25.0711 12.297C25.1174 12.9023 25.1034 13.5032 25.1034 13.5032C24.8588 11.8787 23.4755 11.5101 22.5547 11.2648C22.5251 11.2569 22.496 11.2492 22.4675 11.2415C22.4675 11.2415 22.4367 11.7502 22.7134 12.3272C23.0019 12.9057 23.5917 13.6007 25.0637 14.165C25.0637 14.165 25.0171 14.7702 24.9034 15.3606C24.8391 15.6578 24.7708 15.9509 24.7034 16.164C24.6398 16.377 24.595 16.5177 24.595 16.5177C24.8154 14.9545 23.6303 14.2364 22.8171 13.7437C22.765 13.7121 22.7145 13.6815 22.6659 13.6517C22.6659 13.6517 22.5004 14.1557 22.6103 14.7702C22.7141 15.3991 23.1839 16.1106 24.3292 17.1214C24.3292 17.1214 24.2612 17.2552 24.1559 17.4571C24.1191 17.5225 24.083 17.5989 24.0443 17.6808C23.9694 17.8393 23.8847 18.0184 23.7662 18.1785C23.4084 18.6583 23.0504 19.1406 23.0504 19.1406C23.8816 17.6871 22.866 16.5744 22.2773 15.9295C22.2658 15.9169 22.2544 15.9045 22.2433 15.8923C22.2433 15.8923 22.1514 15.9736 22.0573 16.1301C21.6153 17.3276 21.8681 18.2571 22.5846 19.612C22.5846 19.612 22.4771 19.7157 22.3125 19.8822C22.151 20.0402 21.9281 20.2561 21.666 20.4241C21.171 20.7824 20.6651 21.1259 20.6508 21.1135C20.9874 20.8623 21.1629 20.52 21.2986 20.2259C21.4185 19.9179 21.4939 19.6465 21.4635 19.3244C21.4295 18.7638 21.2478 18.2602 21.0971 17.8424C21.0827 17.8024 21.0685 17.7632 21.0548 17.7248C21.0548 17.7248 20.5163 18.2347 20.3409 18.4847C20.1716 18.7325 20.044 19.0831 19.9915 19.576C19.9129 20.0371 19.9049 20.634 20.0617 21.415C20.0971 21.4886 17.8347 22.3492 17.8102 22.2712C18.5785 21.9572 18.931 21.3231 19.1133 20.7874C19.2507 20.2879 19.2447 19.7755 19.2396 19.339C19.2387 19.2596 19.2378 19.1827 19.2378 19.1089C19.2378 19.1089 18.517 19.4499 18.2649 19.6468C17.7903 20.098 17.2683 20.848 17.1602 22.433C17.1602 22.433 17.0574 22.4616 16.905 22.5047C16.765 22.5216 16.5782 22.548 16.3952 22.5737C16.3732 22.5768 16.3513 22.5799 16.3295 22.583ZM13.6664 22.583C14.0841 22.6404 14.5046 22.7032 14.5046 22.7032C14.6211 22.7147 14.7111 22.8097 14.7108 22.9305C14.7108 23.0588 14.604 23.1578 14.4813 23.1578C14.4802 23.1578 14.4782 23.1568 14.4758 23.1556C14.4723 23.1538 14.4679 23.1516 14.4642 23.1516V23.1578L13.5978 23.0361C13.5095 23.0244 13.4212 23.0116 13.3367 22.9993C13.2139 22.9815 13.0993 22.9648 13.005 22.9547C12.8469 22.9081 12.7388 22.8842 12.7388 22.8842C11.9957 24.2711 10.7917 24.6158 9.83055 24.4556C9.34206 24.4109 8.92996 24.2258 8.64239 24.0603C8.35949 23.8947 8.19117 23.7662 8.19117 23.7662C8.4371 23.6708 8.6849 23.5571 8.94002 23.44C9.25415 23.2958 9.57938 23.1465 9.92589 23.0202C10.2476 22.8911 10.5901 22.7889 10.9463 22.7408C11.2867 22.7022 11.6457 22.7022 12.0643 22.7277C11.6572 22.6392 9.69763 21.9017 9.72776 21.8299C9.19331 22.4026 8.60233 22.7022 8.02627 22.801C7.46697 22.8699 6.91979 22.7408 6.45459 22.5401C6.04639 22.3824 5.74705 22.092 5.51277 21.8647C5.47578 21.8288 5.44041 21.7945 5.40649 21.7625C5.17017 21.5178 5.04222 21.3408 5.04222 21.3408C5.31984 21.3322 5.60749 21.2988 5.90262 21.2645C6.24762 21.2245 6.60284 21.1832 6.9642 21.179C7.06214 21.1814 7.16595 21.1794 7.27319 21.1773C7.51586 21.1727 7.77613 21.1677 8.02596 21.2122C8.29936 21.236 8.55669 21.3258 8.84146 21.4252C8.94452 21.4612 9.05118 21.4985 9.16349 21.5343C9.16014 21.5326 9.15569 21.5305 9.15022 21.5279C9.10194 21.505 8.9739 21.4443 8.8163 21.3324C8.70584 21.2508 8.57048 21.1558 8.4257 21.0541C8.31281 20.9749 8.1942 20.8917 8.0772 20.8076C7.79615 20.6312 7.54989 20.403 7.37971 20.2256C7.20425 20.052 7.08531 19.9353 7.08531 19.9353C5.65804 20.7511 4.49007 20.2141 3.71991 19.5005C3.38483 19.108 3.1454 18.6807 3.00317 18.3589C2.85659 18.0406 2.79665 17.8248 2.79665 17.8248C3.10497 17.9332 3.42531 18.0184 3.75277 18.1055C4.69413 18.3559 5.69431 18.622 6.63688 19.5005C6.63688 19.5005 6.25087 18.9797 5.86269 18.4574C5.72562 18.2837 5.63327 18.0868 5.55084 17.911C5.51019 17.8243 5.47195 17.7428 5.43196 17.6717C5.32109 17.4574 5.24656 17.3102 5.24656 17.3102C3.60842 17.585 2.6743 16.5696 2.2886 15.6774C1.89544 14.7628 2.01811 13.9218 2.01811 13.9218C2.22738 14.0798 2.45366 14.2287 2.68738 14.3825C3.49867 14.9165 4.39961 15.5095 4.99005 16.7432C4.99005 16.7432 4.77453 16.1255 4.64689 15.4885C4.52361 14.8547 4.46895 14.2072 4.46895 14.2072C2.91062 13.9044 2.25661 12.8219 2.13208 11.8555C1.98799 10.8884 2.33766 10.085 2.33766 10.085C2.50726 10.3134 2.70064 10.5351 2.9005 10.7643C3.52991 11.4862 4.22353 12.2816 4.44038 13.5877C4.44038 13.5877 4.41522 12.9436 4.46274 12.2974C4.50435 11.6496 4.62764 11.0173 4.62764 11.0173C3.20471 10.3186 2.84976 9.07916 3.05037 8.05249C3.11239 7.58094 3.32695 7.16987 3.48517 6.86674C3.49888 6.84048 3.51216 6.81503 3.52489 6.79043C3.73047 6.48795 3.88978 6.31374 3.88978 6.31374C3.96198 6.66135 4.09441 7.01679 4.23162 7.38507C4.32633 7.63928 4.42331 7.89961 4.50435 8.1677C4.71708 8.83165 4.84502 9.52728 4.75558 10.4074C4.75558 10.4074 4.78633 10.3005 4.818 10.1384C4.84766 10.0473 4.88193 9.93805 4.91841 9.82175C4.94535 9.73586 4.97349 9.64614 5.00185 9.55709C5.1388 9.14344 5.31519 8.73911 5.31519 8.73911C5.22078 8.45744 5.06396 7.88107 5.38165 7.24445C5.66487 6.64198 6.47788 5.89263 7.7828 6.01282L7.79212 6.00195V6.01282H7.79708C7.7946 6.01282 7.79212 6.01685 7.79212 6.02151C7.44244 7.18917 7.26232 7.77331 6.87786 8.16801C6.51794 8.55775 6.07479 8.77513 5.75493 8.8832C5.75493 8.8832 5.59748 9.26052 5.45525 9.65491C5.39283 9.85118 5.33041 10.0474 5.2832 10.1946C5.23476 10.3487 5.21737 10.454 5.21737 10.454C5.554 9.68628 6.13473 9.32201 6.70831 9.19468C7.2881 9.06394 7.86354 9.14344 8.33371 9.2304C8.33371 9.2304 8.02192 9.82137 7.82565 10.0397C7.39679 10.444 6.65707 10.9418 5.07638 11.1008C5.07638 11.1008 4.96179 11.6912 4.92452 12.297C4.87546 12.9023 4.89409 13.5032 4.89409 13.5032C5.13508 11.8809 6.517 11.5111 7.43397 11.2658C7.46466 11.2575 7.49483 11.2495 7.52442 11.2415C7.52442 11.2415 7.55952 11.7502 7.28499 12.3272C6.99246 12.9057 6.40366 13.6007 4.93011 14.165C4.93011 14.165 4.97825 14.7702 5.09501 15.3606C5.15557 15.6578 5.23041 15.9509 5.2891 16.164C5.35277 16.377 5.40432 16.5177 5.40432 16.5177C5.18201 14.9531 6.36553 14.2351 7.17778 13.7424C7.22902 13.7113 7.27877 13.6811 7.32661 13.6517C7.32661 13.6517 7.49554 14.1557 7.38095 14.7702C7.28002 15.3991 6.81141 16.1106 5.66518 17.1214C5.66518 17.1214 5.73319 17.2552 5.83691 17.4571C5.87351 17.5223 5.90993 17.5984 5.94899 17.68C6.02492 17.8387 6.11079 18.0181 6.22727 18.1785C6.58409 18.6583 6.94463 19.1406 6.94463 19.1406C6.11237 17.6863 7.12885 16.5733 7.71767 15.9286C7.72887 15.9163 7.73993 15.9042 7.75081 15.8923C7.75081 15.8923 7.84522 15.9736 7.93652 16.1301C8.37874 17.3276 8.12813 18.2571 7.40921 19.612C7.40921 19.612 7.5179 19.7157 7.68436 19.8822C7.69412 19.8916 7.70407 19.9012 7.71421 19.911C7.87441 20.0658 8.08173 20.2661 8.32998 20.4241C8.82406 20.7824 9.33212 21.1259 9.34299 21.1135C9.01132 20.8623 8.83059 20.52 8.69519 20.2259C8.57283 19.9179 8.49954 19.6465 8.53029 19.3244C8.56552 18.7578 8.7503 18.2494 8.90306 17.829C8.91591 17.7936 8.92854 17.7589 8.94083 17.7248C8.94083 17.7248 9.47839 18.2347 9.65788 18.4847C9.82154 18.7325 9.95384 19.0831 10.0069 19.576C10.0833 20.0371 10.0874 20.634 9.93054 21.415C9.8967 21.4886 12.1593 22.3492 12.1892 22.2712C11.415 21.9572 11.0653 21.3231 10.8818 20.7874C10.7432 20.2848 10.7487 19.7691 10.7534 19.3308C10.7543 19.2543 10.755 19.1802 10.755 19.1089C10.755 19.1089 11.4755 19.4499 11.7342 19.6468C12.2037 20.098 12.7289 20.848 12.8348 22.433C12.8348 22.433 12.9397 22.4616 13.0885 22.5047C13.2053 22.5186 13.3492 22.5387 13.4991 22.5597C13.5544 22.5674 13.6105 22.5753 13.6664 22.583Z" fill="url(#paint0_linear)"></path><defs><linearGradient id="paint0_linear" x1="21.6424" y1="6.02261" x2="21.6424" y2="24.443" gradientUnits="userSpaceOnUse"><stop stop-color="#D6BD79"></stop><stop offset="0.491228" stop-color="#F5F4BF"></stop><stop offset="1" stop-color="#D6BD79"></stop></linearGradient></defs></svg>