<svg id="maturity-rating-975" viewBox="0 0 100 100" class="svg-icon svg-icon-maturity-rating-975 "><path id="Fill---Green" fill="#269251" d="M88.729 100H11.274C5.051 100 0 94.954 0 88.728V11.274C0 5.048 5.051 0 11.274 0H88.73C94.956 0 100 5.048 100 11.274v77.454C100 94.954 94.956 100 88.729 100"></path><path id="Combined-Shape" fill="#FFFFFE" d="M68.776 24.428l11.274.001-.004 40.523h13.27V75.1l-24.54-.005V24.428zm-51.928.001l12.335.002L39.86 74.967l.004.131H28.589l-1.196-7.559-8.751.004-1.194 7.552-11.278.003v-.135L16.848 24.43zm36.277-.001v40.524h13.262v10.146h-24.54v-50.67h11.278zM23.015 40.74L20.23 57.987H25.8L23.015 40.74z"></path></svg>