<svg
                      viewBox="0 0 100 100"
                      className="svg-icon svg-icon-maturity-rating-977 "
                    >
                      <path
                        id="Fill---Orange"
                        fill="#CD6D34"
                        d="M88.727 100H11.27C5.05 100 0 94.952 0 88.727V11.273C0 5.047 5.05 0 11.27 0h77.457C94.952 0 100 5.047 100 11.273v77.454C100 94.952 94.952 100 88.727 100"
                      ></path>
                      <path
                        id="15"
                        fill="#FFFFFE"
                        d="M36.876 15.482v68.651H21.509v-49.51h-5.484l7.097-19.141h13.754zm45.46 0V28.87H57.175v10.063h24.08c.845 0 1.533.687 1.533 1.534v42.13c0 .845-.688 1.532-1.534 1.532H43.616a1.533 1.533 0 01-1.533-1.533V62.202H57v8.988h10.874V52.052h-25.79v-36.57h40.254z"
                      ></path>
                    </svg>