<svg id="maturity-rating-976" viewBox="0 0 100 100" class="svg-icon svg-icon-maturity-rating-976 "><path id="Fill---Yellow" fill="#DFB039" d="M88.724 100h-77.45C5.049 100 0 94.954 0 88.728V11.274C0 5.048 5.048 0 11.275 0h77.449C94.949 0 100 5.048 100 11.274v77.454C100 94.954 94.95 100 88.724 100"></path><path id="12" fill="#000" d="M36.92 15.484v68.647H21.553V34.62h-5.48l7.097-19.136h13.75zm44.288 0c.848 0 1.535.687 1.535 1.533v18.144c0 1.018-.044 1.885-.133 2.605a8.067 8.067 0 01-.493 1.975 14.48 14.48 0 01-.9 1.843c-.362.631-.84 1.363-1.44 2.204L60.643 70.653h21.923v13.394H41.59v-10.07l26.152-37.29V28.42H57.136v9.345H42.127V17.017c0-.846.687-1.533 1.534-1.533z"></path></svg>